<svg aria-hidden="true" style="position: absolute; width: 0; height: 0; overflow: hidden;" version="1.1" xmlns="http://www.w3.org/2000/svg" xmlns:xlink="http://www.w3.org/1999/xlink">
<defs>
<symbol id="icon-password" viewBox="0 0 48 32">
<path d="M47.862 16.648c-0.070 0.158-1.764 3.915-5.531 7.682-5.017 5.017-11.356 7.67-18.331 7.67s-13.315-2.652-18.331-7.669c-3.767-3.767-5.461-7.524-5.531-7.682-0.091-0.205-0.138-0.426-0.138-0.65s0.047-0.445 0.138-0.65c0.070-0.158 1.764-3.914 5.531-7.681 5.017-5.016 11.356-7.668 18.331-7.668s13.314 2.652 18.331 7.668c3.767 3.766 5.46 7.523 5.531 7.681 0.091 0.205 0.138 0.426 0.138 0.65s-0.047 0.445-0.138 0.65zM24 23.198c1.424 0 2.816-0.422 4-1.213s2.107-1.916 2.652-3.231 0.688-2.763 0.41-4.16c-0.278-1.397-0.964-2.68-1.97-3.687s-2.29-1.693-3.687-1.97c-1.397-0.278-2.844-0.135-4.16 0.41s-2.44 1.468-3.231 2.652c-0.791 1.184-1.213 2.576-1.213 4 0.002 1.909 0.761 3.739 2.111 5.089s3.18 2.109 5.089 2.111z"></path>
</symbol>
<symbol id="icon-email" viewBox="0 0 23 32">
<path d="M0 32h23.273v-5.714c-0.002-2.121-0.861-4.154-2.388-5.654s-3.597-2.343-5.757-2.346h-6.982c-2.16 0.002-4.23 0.846-5.757 2.346s-2.386 3.533-2.388 5.654v5.714z"></path>
<path d="M3.49 8c0 1.582 0.478 3.129 1.373 4.445s2.167 2.341 3.656 2.947c1.488 0.605 3.126 0.764 4.706 0.455s3.031-1.071 4.171-2.189c1.139-1.119 1.915-2.544 2.229-4.096s0.153-3.16-0.464-4.622c-0.617-1.462-1.661-2.711-3-3.59s-2.914-1.348-4.525-1.348c-2.16 0-4.232 0.843-5.76 2.343s-2.386 3.535-2.386 5.657z"></path>
</symbol>
<symbol id="icon-galck" viewBox="0 0 32 32">
<path d="M30.803 4.216c-1.595-1.627-4.181-1.627-5.777 0l-14.442 14.73-3.611-3.683c-1.595-1.627-4.181-1.627-5.777 0s-1.595 4.265 0 5.892l6.499 6.629c1.595 1.627 4.181 1.627 5.777 0l17.331-17.675c1.596-1.627 1.596-4.265 0-5.893z"></path>
</symbol>
</defs>
</svg>
